<svg width="630" height="328" viewBox="0 0 630 328" fill="none" xmlns="http://www.w3.org/2000/svg">
<path d="M146.764 304.744C144.595 305.829 142.065 306.19 139.173 306.19C136.281 306.19 134.112 305.106 132.305 303.298C130.497 301.491 129.774 298.238 129.774 294.623C129.774 291.008 130.136 287.031 130.859 283.055C131.582 279.079 132.305 274.379 133.389 269.68L139.173 241.845C139.535 239.676 140.257 237.146 140.619 234.616C140.98 232.085 141.703 229.555 142.065 227.024C142.426 224.494 142.788 221.963 143.149 219.433C143.511 216.903 143.511 214.734 143.511 212.203C143.511 208.227 143.149 204.251 142.065 200.997C140.98 197.744 139.535 194.129 137.004 191.598C134.474 189.068 131.582 186.538 127.967 185.092C124.352 183.646 119.653 182.561 114.23 182.561C108.446 182.561 103.024 183.284 98.3248 184.369C93.6255 185.453 89.2876 187.622 84.9498 189.791C80.6119 191.96 76.274 196.659 73.7436 199.19C70.4902 202.443 61.8145 212.565 61.8145 212.565L62.176 209.673C63.622 196.298 53.1388 184.73 39.7637 184.73H24.9427C12.2906 184.73 6.14531 190.514 5.06084 198.467H9.7602C12.2906 198.467 14.4595 198.467 15.9055 198.828C17.3514 199.19 19.1589 199.551 20.2433 200.274C21.3278 200.997 22.0508 202.082 22.7738 203.528C23.4968 204.974 23.4967 206.781 23.4967 209.311C23.4967 209.673 23.4967 210.034 23.4967 211.119C23.4967 212.203 23.1353 212.926 23.1353 214.011C23.1353 215.095 22.7738 216.18 22.4123 217.264C22.0508 218.349 22.0508 219.433 21.6893 220.518L0 324.265H39.0408L52.4158 263.896C53.1388 260.643 54.2233 256.666 55.6692 252.329C57.1152 247.991 58.9226 243.653 60.7301 239.315C62.5375 234.977 65.0679 230.639 67.2368 226.301C69.4058 221.963 72.2977 218.349 74.8281 215.095C77.3585 211.842 80.2504 209.311 83.1423 207.142C86.0342 204.974 88.9261 204.251 91.818 204.251C93.987 204.251 95.7944 204.612 97.2404 205.697C98.6863 206.781 99.7708 207.865 100.494 209.311C101.217 210.757 101.94 212.203 102.301 214.011C102.663 215.818 102.663 217.626 102.663 219.072C102.663 221.241 102.301 223.409 101.94 226.301C101.578 229.193 101.217 231.724 100.494 234.254C99.7708 236.785 99.4093 239.315 99.0478 241.845C98.6863 244.376 97.9633 246.545 97.6019 247.991L93.264 268.595C90.3721 281.971 88.9261 292.092 88.9261 299.683C88.9261 307.998 91.4566 314.504 96.8789 319.204C102.301 323.903 109.892 326.434 120.014 326.434C124.713 326.434 129.051 326.072 133.028 324.988C137.004 323.903 140.619 322.457 143.872 321.011C147.126 319.565 150.018 317.396 152.548 315.227C155.079 313.42 156.886 311.251 159.055 309.444C159.416 309.082 159.416 308.359 159.055 307.998C157.247 304.021 151.825 302.575 146.764 304.744Z" fill="black"/>
<path d="M288.468 195.213C283.407 190.875 277.623 187.622 271.116 185.453C264.609 183.284 257.38 182.199 250.15 182.199C240.39 182.199 231.352 183.645 223.4 186.176C215.447 188.706 208.217 192.321 202.072 197.02C195.927 201.72 190.143 206.781 185.443 212.564C180.744 218.348 176.768 224.855 173.876 231.723C170.984 238.592 168.454 245.098 167.008 252.328C165.562 259.558 164.839 266.065 164.839 272.572C164.839 281.609 166.285 289.561 168.815 296.43C171.345 303.298 175.322 309.082 180.021 313.42C184.72 317.758 190.504 321.372 197.373 323.541C204.241 325.71 211.471 326.795 219.785 326.795C229.545 326.795 238.582 325.349 246.535 322.818C254.488 320.288 261.717 316.312 267.863 311.974C274.008 307.636 279.43 302.214 284.13 296.068C288.829 289.923 292.444 283.778 295.697 276.909C298.951 270.041 300.758 263.534 302.204 256.666C303.65 249.798 304.373 243.291 304.373 237.146C304.373 227.385 302.927 219.071 300.035 212.203C297.143 205.335 293.167 199.551 288.468 195.213ZM263.525 244.014C262.802 249.798 261.718 255.582 260.272 261.365C258.826 267.149 257.018 272.933 254.849 278.717C252.68 284.501 250.15 289.2 246.896 293.538C243.643 297.876 240.39 301.491 236.775 304.021C233.16 306.551 228.822 307.997 224.123 307.997C217.977 307.997 212.917 305.828 209.302 301.129C205.687 296.43 203.879 288.839 203.879 278.355C203.879 273.656 204.241 268.234 204.964 262.45C205.687 256.666 206.771 250.882 208.579 245.098C210.386 239.315 212.194 233.531 214.363 228.108C216.531 222.686 219.423 217.625 222.315 213.649C225.207 209.673 228.822 206.058 232.437 203.527C236.052 200.997 240.39 199.551 244.728 199.551C250.873 199.551 255.572 201.72 259.187 206.419C262.802 211.119 264.609 218.348 264.609 228.47C264.609 233.169 264.248 238.23 263.525 244.014Z" fill="black"/>
<path d="M534.641 303.66C532.473 304.744 529.942 305.106 527.05 305.106C524.158 305.106 521.989 304.021 520.182 302.214C518.375 300.406 517.652 297.153 517.652 293.538C517.652 289.923 518.013 285.947 518.736 281.97C519.459 277.994 520.182 273.295 521.266 268.595L527.412 240.761C527.773 238.592 528.496 236.061 528.858 233.531C529.219 231 529.942 228.47 530.304 225.94C530.665 223.409 531.027 220.879 531.388 218.348C531.75 215.818 531.75 213.649 531.75 211.119C531.75 207.142 531.388 203.166 530.304 199.912C529.219 196.659 527.773 193.044 525.243 190.514C522.712 187.983 519.82 185.453 516.206 184.007C512.591 182.561 508.253 181.477 502.831 181.477C497.408 181.477 491.986 182.2 487.287 183.284C482.587 184.368 478.249 186.537 474.273 189.068C470.297 191.598 465.597 195.936 463.067 198.828C460.175 202.081 451.499 212.565 451.499 212.565V210.757C451.499 206.781 451.138 203.166 450.053 199.912C448.969 196.659 447.523 193.406 445.354 190.875C443.185 188.345 440.293 186.176 436.678 184.73C433.063 183.284 428.364 182.561 422.942 182.561C417.881 182.561 412.82 182.923 408.482 184.007C404.144 185.091 399.806 186.899 395.83 189.068C391.854 191.237 387.154 195.575 384.624 198.105C381.37 201.358 372.333 211.48 372.333 211.48C374.864 197.744 364.381 185.091 350.282 185.091H334.738C323.171 185.091 315.941 190.875 314.857 198.828H319.556C322.086 198.828 324.255 198.828 325.701 199.189C327.147 199.551 328.955 199.912 330.039 200.635C331.124 201.358 331.847 202.443 332.57 203.889C333.293 205.335 333.293 207.142 333.293 209.673C333.293 210.034 333.293 210.396 333.293 211.48C333.293 212.565 332.931 213.288 332.931 214.372C332.931 215.456 332.57 216.541 332.208 217.625C331.847 218.71 331.847 219.794 331.485 220.879L309.796 324.626H348.837L363.296 259.197C364.019 255.943 365.103 252.328 366.549 248.352C367.995 244.376 369.441 240.399 371.61 236.423C373.779 232.446 375.587 228.47 378.117 224.494C380.647 220.517 382.816 217.264 385.708 214.372C388.6 211.48 391.131 208.95 394.023 207.142C396.914 205.335 399.806 204.612 402.698 204.612C404.506 204.612 406.313 204.973 407.398 206.058C408.482 207.142 409.567 208.227 409.928 209.311C410.29 210.396 411.013 212.203 411.013 214.011C411.013 215.818 411.374 217.264 411.374 219.071C411.374 221.24 411.374 223.771 411.013 226.301C410.651 228.832 410.29 231.723 409.928 234.254C409.567 236.784 408.844 239.315 408.482 241.845C408.121 244.376 407.759 246.183 407.398 247.99L403.421 266.065C402.698 268.595 402.337 271.849 401.614 275.464C400.891 279.078 400.168 282.693 399.445 286.67C398.722 290.646 397.999 294.622 397.276 298.599C396.553 302.575 395.83 306.19 395.468 309.805C395.107 313.42 394.384 316.312 394.384 318.842C394.384 321.373 394.023 323.18 394.023 324.264H434.509C434.509 323.541 434.509 322.096 434.871 319.927C435.232 317.758 435.232 314.866 435.594 311.612C435.955 308.359 436.317 305.106 437.04 301.129C437.763 297.153 438.124 293.899 438.486 290.285C438.847 286.67 439.57 283.416 439.932 280.163C440.293 276.909 440.655 274.741 441.016 272.933L443.185 262.088C443.908 258.835 444.631 254.859 446.077 250.882C447.523 246.906 448.969 242.568 451.138 238.23C453.307 233.892 455.114 229.555 457.644 225.578C460.175 221.602 462.344 217.987 465.236 214.733C468.128 211.48 470.658 208.95 473.188 207.142C475.719 205.335 478.611 204.25 481.503 204.25C483.672 204.25 485.479 204.612 486.564 205.696C487.648 206.781 489.094 207.865 489.817 209.311C490.54 210.757 491.263 212.203 491.263 214.011C491.263 215.818 491.624 217.625 491.624 219.071C491.624 221.24 491.624 223.409 491.263 226.301C490.901 229.193 490.54 231.723 490.178 234.254C489.817 236.784 489.094 239.315 488.732 241.845C488.371 244.376 487.648 246.544 487.287 247.99L482.949 268.595C481.503 275.102 480.418 281.247 479.695 286.308C478.972 291.369 478.611 295.707 478.611 299.683C478.611 307.997 481.141 314.504 486.564 319.204C491.986 323.903 499.577 326.433 509.337 326.433C514.037 326.433 518.375 326.072 522.351 324.987C526.327 323.903 529.942 322.457 533.196 321.011C536.449 319.565 539.341 317.396 541.871 315.227C544.04 313.42 546.209 311.612 548.017 309.443C548.378 309.082 548.378 307.997 548.017 307.636C545.125 302.937 539.341 301.491 534.641 303.66Z" fill="black"/>
<path d="M629.351 307.997C626.459 303.66 620.675 302.214 615.976 304.383C613.807 305.467 611.276 305.829 608.385 305.829C605.493 305.829 603.324 304.744 601.878 302.937C600.432 301.129 599.347 297.876 599.347 294.261C599.347 290.646 599.709 286.67 600.432 282.693C601.155 278.717 601.878 274.018 602.962 269.318L615.253 211.842C618.145 197.744 607.662 184.73 593.202 184.73H576.935C568.982 184.73 558.138 190.514 557.053 198.467H561.753C564.283 198.467 566.452 198.467 567.898 198.828C569.344 199.19 571.151 199.551 572.236 200.274C573.32 200.997 574.043 202.081 574.766 203.527C575.489 204.973 575.489 206.781 575.489 209.311C575.489 209.673 575.489 210.034 575.489 211.119C575.489 212.203 575.128 212.926 575.128 214.011C575.128 215.095 574.766 216.179 574.405 217.264C574.043 218.348 574.043 219.433 573.682 220.517L563.56 269.318C562.114 275.825 561.03 281.97 560.307 287.031C559.584 292.092 559.222 296.791 559.222 300.406C559.222 308.72 561.753 315.227 567.175 319.927C572.597 324.626 580.188 327.156 590.31 327.156C595.009 327.156 599.347 326.795 603.324 325.71C607.3 324.626 610.915 323.18 614.168 321.734C617.422 320.288 620.314 318.119 623.206 315.95C625.374 314.143 627.543 311.974 629.351 310.166C629.712 309.443 629.712 308.72 629.351 307.997Z" fill="black"/>
<path d="M605.132 168.825C617.51 168.825 627.544 158.79 627.544 146.412C627.544 134.034 617.51 124 605.132 124C592.754 124 582.72 134.034 582.72 146.412C582.72 158.79 592.754 168.825 605.132 168.825Z" fill="black"/>
<path fill-rule="evenodd" clip-rule="evenodd" d="M208.345 0C205.899 0 203.907 1.98946 204.003 4.4334C205.724 48.1332 232.774 85.3246 270.879 101.734C274.117 103.128 274.535 107.991 271.898 110.331C268.734 113.138 266.516 116.282 265.477 119.639C264.753 121.975 266.792 124 269.238 124H360.023C362.469 124 364.507 121.975 363.784 119.639C362.745 116.282 360.526 113.138 357.363 110.331C354.726 107.991 355.143 103.128 358.382 101.734C396.487 85.3247 423.537 48.1333 425.258 4.43339C425.354 1.98945 423.362 0 420.916 0H208.345ZM319.324 78.6071C342.393 72.5178 358.364 53.2076 356.341 26.6891C355.679 24.3571 354.571 27.125 354.571 27.125C346.481 41.3955 334.943 46.9629 319.324 45.3898C316.177 45.1088 313.184 44.4189 310.19 43.729C307.196 43.0392 304.202 42.3493 301.056 42.0683C292.291 41.3941 284.931 45.8359 282.234 53.1398C279.875 59.657 283.395 68.9108 290.024 73.6302C298.115 79.3609 308.311 81.5139 319.324 78.6071Z" fill="black"/>
</svg>
