<svg width="641" height="125" viewBox="0 0 641 125" fill="none" xmlns="http://www.w3.org/2000/svg">
<path fill-rule="evenodd" clip-rule="evenodd" d="M2.2627 42.7502C-0.792962 47.3296 -0.225993 50.8241 0.907946 57.8132C4.49118 79.8984 14.1075 97.0735 33.6196 108.295C37.1129 110.304 36.5271 111.871 35.2649 114.514C34.3905 116.345 33.9533 117.261 34.473 118.512C34.9928 119.763 35.9285 120.097 37.7999 120.764C42.8479 122.564 52.4805 125 67.6345 125C82.7884 125 92.4211 122.564 97.469 120.764C99.3404 120.097 100.276 119.763 100.796 118.512C101.316 117.261 100.878 116.345 100.004 114.514C98.7418 111.871 98.156 110.304 101.649 108.295C121.161 97.0736 130.778 79.8986 134.361 57.8133C135.495 50.8242 136.062 47.3297 133.007 42.7502C129.951 38.1707 126.696 37.3806 120.186 35.8005C109.384 33.1785 92.4474 30.5967 67.6345 30.5967C42.8217 30.5967 25.8853 33.1785 15.0832 35.8005C8.5733 37.3806 5.31835 38.1707 2.2627 42.7502ZM71.6383 91.0161C88.735 86.5913 100.571 72.5593 99.0722 53.2892C98.5811 51.5946 97.7606 53.6059 97.7606 53.6059C91.7647 63.9758 83.2136 68.0214 71.6383 66.8783C69.3066 66.6742 67.0877 66.1728 64.869 65.6715C62.6503 65.1702 60.4315 64.6689 58.0999 64.4647C51.6044 63.9748 46.1498 67.2025 44.1512 72.5099C42.4024 77.2458 45.0112 83.9702 49.9245 87.3996C55.9203 91.5639 63.477 93.1284 71.6383 91.0161Z" fill="#F06441"/>
<path d="M611.035 28.4863C621.751 27.768 630.006 20.8223 629.474 12.9727C628.942 5.12304 619.823 -0.658013 609.107 0.0603129C598.392 0.778639 590.136 7.72433 590.669 15.5739C591.201 23.4236 600.32 29.2046 611.035 28.4863Z" fill="black"/>
<path fill-rule="evenodd" clip-rule="evenodd" d="M351.74 124.932C378.308 124.932 399.845 107.634 399.845 77.1086C399.845 46.583 380.355 30.3027 353.787 30.3027C327.22 30.3027 304.147 47.6006 304.147 79.1436C304.147 110.687 325.173 124.932 351.74 124.932ZM359.729 107.618C369.061 105.132 373.672 92.1579 368.46 72.818C363.247 53.4781 353.621 44.9871 344.289 47.4729C334.958 49.9587 329.807 63.0768 335.194 83.0614C340.58 103.046 350.398 110.104 359.729 107.618Z" fill="black"/>
<path d="M282.142 40.4825C272.418 30.8161 261.16 31.3249 261.16 31.3249C249.942 31.3249 239.601 36.5549 233.674 42.1865C231.809 43.9584 230.876 44.8444 230.524 44.8786C230.152 44.9148 229.962 44.8466 229.698 44.5822C229.449 44.3325 229.308 43.1282 229.027 40.7195C228.683 37.777 228.048 34.8033 226.873 33.8687C224.314 31.8336 218.173 31.325 205.379 34.8863C192.585 38.4476 186.444 42.5176 186.444 47.6052C186.444 50.6587 188.288 51.3298 190.536 52.1482C192.034 52.6934 193.712 53.3041 195.144 54.7279C198.726 58.2892 198.726 61.8506 198.726 61.8506V101.519C197.627 104.958 194.938 106.907 192.464 108.701C189.846 110.599 187.468 112.323 187.468 115.455C187.468 122.067 195.303 123.748 198.726 123.902V123.919H229.431V123.91C232.502 123.91 241.202 122.418 241.202 115.451C241.202 112.319 238.824 110.595 236.206 108.697L236.205 108.697C232.998 106.372 229.431 103.786 229.431 98.0335L229.432 71.0081C229.432 71.0081 231.479 52.6928 246.32 52.6928C260.681 52.6928 261.145 75.5615 261.16 77.0384V98.0376C261.16 103.79 257.593 106.376 254.386 108.701C251.768 110.599 249.39 112.323 249.39 115.455C249.39 122.422 258.089 123.914 261.16 123.914V123.919H291.865V123.91C294.936 123.91 303.635 122.418 303.635 115.451C303.635 112.319 301.258 110.595 298.64 108.697L298.639 108.697C295.432 106.372 291.865 103.786 291.865 98.0335V72.021C291.865 72.021 291.865 50.149 282.142 40.4825Z" fill="black"/>
<path d="M498.101 40.4825C488.378 30.8161 477.119 31.3249 477.119 31.3249C464.225 31.3249 452.488 38.2352 447.283 44.7227C446.607 45.5655 445.387 46.0743 445.278 44.1597C445.071 40.5375 444.486 35.184 442.832 33.8687C440.273 31.8336 434.132 31.325 421.338 34.8863C408.545 38.4476 402.404 42.5176 402.404 47.6052C402.404 50.6587 404.247 51.3298 406.496 52.1482C407.993 52.6934 409.671 53.3041 411.103 54.7279C414.686 58.2892 414.686 61.8506 414.686 61.8506V101.519C413.586 104.958 410.898 106.908 408.423 108.701C405.805 110.599 403.427 112.323 403.427 115.455C403.427 122.067 411.262 123.748 414.686 123.902V123.919H445.391V123.91C448.461 123.91 457.161 122.418 457.161 115.451C457.161 112.319 454.783 110.595 452.165 108.697L452.164 108.697C448.957 106.372 445.391 103.786 445.391 98.0335L445.391 71.0081C445.391 71.0081 447.438 52.6928 462.279 52.6928C476.641 52.6928 477.105 75.5615 477.119 77.0384V98.0376C477.119 103.79 473.552 106.376 470.345 108.701C467.727 110.599 465.349 112.323 465.349 115.455C465.349 122.422 474.049 123.914 477.119 123.914V123.919H507.824V123.91C510.895 123.91 519.595 122.418 519.595 115.451C519.595 112.319 517.217 110.595 514.599 108.697L514.598 108.697C511.391 106.372 507.824 103.786 507.824 98.0335V72.021C507.824 72.021 507.839 70.5446 507.974 69.8158C508.701 65.885 512.083 52.6929 524.712 52.6929C539.074 52.6929 539.538 75.5615 539.553 77.0386V98.0376C539.553 103.79 535.986 106.376 532.779 108.701C530.161 110.599 527.782 112.323 527.782 115.455C527.782 122.422 536.482 123.914 539.553 123.914V123.919H570.258V123.911C573.328 123.911 582.028 122.418 582.028 115.451C582.028 112.319 579.649 110.595 577.031 108.697C573.825 106.372 570.258 103.786 570.258 98.0336V72.021C570.258 72.021 570.258 50.1491 560.534 40.4827C550.811 30.8161 539.553 31.3249 539.553 31.3249C528.178 31.3249 522.096 31.3249 504.467 44.9701C503.75 45.5251 503.391 45.8026 503.05 45.861C502.722 45.9173 502.43 45.8674 502.14 45.7057C501.838 45.5375 501.583 45.1421 501.074 44.3512C500.148 42.9122 499.075 41.4506 498.101 40.4825Z" fill="black"/>
<path d="M628.598 47.9209L628.605 99.5573C628.784 105.002 632.248 107.513 635.372 109.777L635.373 109.778C637.991 111.676 640.368 113.4 640.368 116.531C640.368 123.499 631.669 124.991 628.598 124.991V125H597.893V124.983C594.47 124.829 586.634 123.148 586.634 116.536C586.634 113.404 589.013 111.68 591.631 109.782C594.105 107.988 596.793 106.039 597.893 102.6V65.9839C597.893 65.9839 597.893 62.4226 594.311 58.8613C592.878 57.4375 591.201 56.8267 589.703 56.2816C587.454 55.4632 585.611 54.7921 585.611 51.7385C585.611 46.6509 591.752 42.581 604.546 39.0197C617.339 35.4584 623.48 35.967 626.039 38.002C628.086 39.4604 628.598 43.5305 628.598 47.9209Z" fill="black"/>
</svg>
